<svg width="81" height="77" viewBox="0 0 81 77" fill="none" xmlns="http://www.w3.org/2000/svg">
<g id="notification">
<path id="Rectangle 46 (Stroke)" fill-rule="evenodd" clip-rule="evenodd" d="M16.4875 25.7405C18.103 17.34 25.4536 11.2683 34.008 11.2683H46.7482C55.3026 11.2683 62.6531 17.34 64.2686 25.7404L65.1754 30.4558C65.4692 31.9836 64.4689 33.4604 62.941 33.7542C61.4132 34.048 59.9365 33.0476 59.6426 31.5198L58.7358 26.8044C57.6305 21.0567 52.6012 16.9024 46.7482 16.9024H34.008C28.155 16.9024 23.1256 21.0567 22.0203 26.8044L15.6178 60.0976H65.1384L62.532 46.5442C62.2381 45.0164 63.2385 43.5396 64.7663 43.2458C66.2942 42.952 67.7709 43.9524 68.0647 45.4802L71.3152 62.3826C71.4739 63.2078 71.2559 64.0608 70.7207 64.7087C70.1856 65.3566 69.3891 65.7317 68.5488 65.7317H12.2073C11.367 65.7317 10.5706 65.3566 10.0354 64.7087C9.50025 64.0608 9.28226 63.2078 9.44096 62.3826L16.4875 25.7405Z" fill="#545050"/>
<path id="Vector 128 (Stroke)" fill-rule="evenodd" clip-rule="evenodd" d="M0 62.9146C0 61.3588 1.26125 60.0976 2.81707 60.0976H77.939C79.4948 60.0976 80.7561 61.3588 80.7561 62.9146C80.7561 64.4705 79.4948 65.7317 77.939 65.7317H2.81707C1.26125 65.7317 0 64.4705 0 62.9146Z" fill="#545050"/>
<path id="Rectangle 52 (Stroke)" fill-rule="evenodd" clip-rule="evenodd" d="M26.2927 62.9146C26.2927 61.3588 27.5539 60.0976 29.1098 60.0976H51.6463C53.2022 60.0976 54.4634 61.3588 54.4634 62.9146V66.6707C54.4634 72.3754 49.8388 77 44.1341 77H36.622C30.9173 77 26.2927 72.3754 26.2927 66.6707V62.9146ZM31.9268 65.7317V66.6707C31.9268 69.2638 34.0289 71.3659 36.622 71.3659H44.1341C46.7272 71.3659 48.8293 69.2638 48.8293 66.6707V65.7317H31.9268Z" fill="#545050"/>
<path id="Rectangle 52 (Stroke)_2" fill-rule="evenodd" clip-rule="evenodd" d="M30.0488 14.0854C30.0488 15.6412 31.31 16.9024 32.8659 16.9024H47.8902C49.4461 16.9024 50.7073 15.6412 50.7073 14.0854V10.3293C50.7073 4.62457 46.0827 0 40.378 0C34.6734 0 30.0488 4.62457 30.0488 10.3293V14.0854ZM35.6829 11.2683V10.3293C35.6829 7.73622 37.785 5.63415 40.378 5.63415C42.9711 5.63415 45.0732 7.73622 45.0732 10.3293V11.2683H35.6829Z" fill="#545050"/>
</g>
</svg>
