<svg width="88" height="88" viewBox="0 0 88 88" fill="none" xmlns="http://www.w3.org/2000/svg">
<path fill-rule="evenodd" clip-rule="evenodd" d="M37.0256 13.2662C39.2208 6.50988 48.7791 6.50993 50.9744 13.2662L55.7194 27.8697L71.0744 27.8697C78.1784 27.8697 81.132 36.9602 75.3848 41.1358L62.9623 50.1613L67.7073 64.7648C69.9026 71.5211 62.1697 77.1393 56.4225 72.9638L44 63.9383L31.5775 72.9638C25.8302 77.1394 18.0974 71.5211 20.2926 64.7648L25.0376 50.1613L12.6151 41.1358C6.86784 36.9602 9.82157 27.8697 16.9255 27.8697H32.2806L37.0256 13.2662ZM44 15.5323L39.255 30.1358C38.2732 33.1573 35.4576 35.203 32.2806 35.203H16.9255L29.348 44.2285C31.9183 46.0959 32.9938 49.4059 32.012 52.4274L27.267 67.031L39.6895 58.0055C42.2598 56.1381 45.7401 56.1381 48.3104 58.0055L60.7329 67.031L55.9879 52.4274C55.0062 49.4059 56.0817 46.0959 58.6519 44.2285L71.0744 35.203H55.7194C52.5424 35.203 49.7267 33.1573 48.7449 30.1358L44 15.5323Z" fill="white"/>
</svg>
