<svg width="50" height="50" viewBox="0 0 50 50" fill="none" xmlns="http://www.w3.org/2000/svg">
<path fill-rule="evenodd" clip-rule="evenodd" d="M25.0007 5.72925C27.0175 5.72925 28.9592 6.03856 30.7824 6.6112C31.6057 6.86979 32.4828 6.412 32.7414 5.58871C32.9999 4.76541 32.5421 3.88838 31.7189 3.6298C29.5961 2.96308 27.3388 2.60425 25.0007 2.60425C12.6318 2.60425 2.60482 12.6312 2.60482 25.0001C2.60482 37.369 12.6318 47.3959 25.0007 47.3959C37.3695 47.3959 47.3965 37.369 47.3965 25.0001C47.3965 18.7354 44.8222 13.0692 40.6778 9.00632C40.0616 8.40222 39.0723 8.41205 38.4682 9.02828C37.8641 9.64451 37.8739 10.6338 38.4902 11.2379C42.0597 14.7372 44.2715 19.6089 44.2715 25.0001C44.2715 35.6431 35.6436 44.2709 25.0007 44.2709C14.3577 44.2709 5.72982 35.6431 5.72982 25.0001C5.72982 14.3571 14.3577 5.72925 25.0007 5.72925Z" fill="black"/>
<path fill-rule="evenodd" clip-rule="evenodd" d="M38.6052 15.5619C39.2154 16.1721 39.2154 17.1614 38.6052 17.7716L21.9385 34.4383C21.3283 35.0485 20.339 35.0485 19.7288 34.4383L12.4371 27.1466C11.8269 26.5364 11.8269 25.5471 12.4371 24.9369C13.0473 24.3267 14.0367 24.3267 14.6468 24.9369L20.8337 31.1237L36.3955 15.5619C37.0057 14.9517 37.995 14.9517 38.6052 15.5619Z" fill="black"/>
</svg>
