<svg width="50" height="50" viewBox="0 0 50 50" fill="none" xmlns="http://www.w3.org/2000/svg">
<path fill-rule="evenodd" clip-rule="evenodd" d="M41.0537 10.9528C36.9414 6.96391 30.3717 6.77286 26.0262 10.392C25.7284 10.64 25.363 10.7597 25.0003 10.7536C24.6376 10.7597 24.2722 10.64 23.9744 10.392C19.6289 6.77286 13.0592 6.96391 8.94695 10.9528C4.85684 14.9201 4.66846 21.2163 8.36936 25.3972C8.92296 26.0226 8.88682 26.9728 8.28731 27.5544L8.26133 27.5796C7.64193 28.1804 6.65273 28.1654 6.05188 27.546C5.94934 27.4403 5.86474 27.3238 5.79802 27.2003C1.2353 21.7747 1.56363 13.7609 6.77116 8.70968C11.7434 3.88665 19.4733 3.40304 25.0003 7.2485C30.5273 3.40304 38.2572 3.88665 43.2295 8.70968C48.4375 13.7614 48.7654 21.7762 44.2013 27.2019C44.1264 27.3403 44.0303 27.4679 43.9151 27.5796L26.0882 44.8715C25.4815 45.46 24.5167 45.4594 23.9108 44.87L12.4525 33.7243C11.8339 33.1226 11.8203 32.1334 12.422 31.5148C13.0236 30.8962 14.0129 30.8825 14.6314 31.4842L25.0018 41.5717L41.498 25.5706C41.5378 25.5106 41.5822 25.4526 41.6313 25.3972C45.3322 21.2163 45.1438 14.9201 41.0537 10.9528Z" fill="black"/>
<path fill-rule="evenodd" clip-rule="evenodd" d="M31.7705 12.5C31.7705 11.6371 32.4701 10.9375 33.333 10.9375C37.6477 10.9375 41.1455 14.4353 41.1455 18.75C41.1455 19.6129 40.446 20.3125 39.583 20.3125C38.7201 20.3125 38.0205 19.6129 38.0205 18.75C38.0205 16.1612 35.9218 14.0625 33.333 14.0625C32.4701 14.0625 31.7705 13.3629 31.7705 12.5Z" fill="black"/>
</svg>
