<svg width="25" height="26" viewBox="0 0 25 26" fill="none" xmlns="http://www.w3.org/2000/svg">
<path fill-rule="evenodd" clip-rule="evenodd" d="M9.37533 3.62496C5.92355 3.62496 3.12533 6.42318 3.12533 9.87496C3.12533 13.3267 5.92355 16.125 9.37533 16.125C12.8271 16.125 15.6253 13.3267 15.6253 9.87496C15.6253 6.42318 12.8271 3.62496 9.37533 3.62496ZM1.04199 9.87496C1.04199 5.27259 4.77295 1.54163 9.37533 1.54163C13.9777 1.54163 17.7087 5.27259 17.7087 9.87496C17.7087 14.4773 13.9777 18.2083 9.37533 18.2083C4.77295 18.2083 1.04199 14.4773 1.04199 9.87496Z" fill="#908A8A"/>
<path fill-rule="evenodd" clip-rule="evenodd" d="M15.3198 14.3468L23.1323 22.1593L21.6592 23.6324L13.8467 15.8199L15.3198 14.3468Z" fill="#908A8A"/>
</svg>
