<svg width="88" height="88" viewBox="0 0 88 88" fill="none" xmlns="http://www.w3.org/2000/svg">
<path fill-rule="evenodd" clip-rule="evenodd" d="M49.041 11C49.041 9.55608 48.1936 8.24661 46.8764 7.6551C45.5592 7.0636 44.0175 7.3002 42.9384 8.25948L23.3553 25.6667H8.70768C6.68264 25.6667 5.04102 27.3083 5.04102 29.3333V58.6667C5.04102 60.6917 6.68264 62.3333 8.70768 62.3333H23.3553L42.9384 79.7405C44.0175 80.6998 45.5592 80.9364 46.8764 80.3449C48.1936 79.7534 49.041 78.4439 49.041 77V11Z" fill="white"/>
<path fill-rule="evenodd" clip-rule="evenodd" d="M52.6623 37.4409L51.2617 34.6398L57.8209 31.3602L59.2214 34.1613C62.3182 40.3549 62.3182 47.6451 59.2214 53.8387L57.8209 56.6398L51.2617 53.3602L52.6623 50.5591C54.7268 46.4301 54.7268 41.57 52.6623 37.4409Z" fill="white"/>
<path fill-rule="evenodd" clip-rule="evenodd" d="M63.0578 35.065L60.3574 28.9892L67.0587 26.0109L69.7591 32.0866C73.13 39.6712 73.13 48.3288 69.7591 55.9134L67.0587 61.9892L60.3574 59.0109L63.0578 52.9351C65.586 47.2466 65.586 40.7534 63.0578 35.065Z" fill="white"/>
<path fill-rule="evenodd" clip-rule="evenodd" d="M73.3684 32.7179L69.4902 23.4102L76.2595 20.5897L80.1377 29.8974C83.8984 38.9231 83.8984 49.0769 80.1377 58.1025L76.2595 67.4102L69.4902 64.5897L73.3684 55.282C76.377 48.0615 76.377 39.9384 73.3684 32.7179Z" fill="white"/>
</svg>
