<svg width="78" height="74" viewBox="0 0 78 74" fill="none" xmlns="http://www.w3.org/2000/svg">
<path fill-rule="evenodd" clip-rule="evenodd" d="M44 3.66673C44 2.22283 43.1526 0.913355 41.8354 0.321851C40.5182 -0.269654 38.9765 -0.0330481 37.8973 0.92623L18.3143 18.3334H3.66667C1.64162 18.3334 0 19.975 0 22.0001V51.3334C0 53.3584 1.64162 55.0001 3.66667 55.0001H18.3143L37.8973 72.4072C38.9765 73.3665 40.5182 73.6031 41.8354 73.0116C43.1526 72.4201 44 71.1106 44 69.6667V3.66673Z" fill="#68686E"/>
<path fill-rule="evenodd" clip-rule="evenodd" d="M47.6203 30.1078L46.2197 27.3067L52.7789 24.0271L54.1794 26.8282C57.2762 33.0218 57.2762 40.312 54.1794 46.5056L52.7789 49.3067L46.2197 46.0271L47.6203 43.226C49.6848 39.0969 49.6848 34.2368 47.6203 30.1078Z" fill="#68686E"/>
<path fill-rule="evenodd" clip-rule="evenodd" d="M58.0158 27.7316L55.3154 21.6558L62.0167 18.6775L64.7171 24.7533C68.088 32.3378 68.088 40.9955 64.7171 48.5801L62.0167 54.6558L55.3154 51.6775L58.0158 45.6017C60.544 39.9133 60.544 33.4201 58.0158 27.7316Z" fill="#68686E"/>
<path fill-rule="evenodd" clip-rule="evenodd" d="M68.3264 25.3848L64.4482 16.0771L71.2175 13.2566L75.0957 22.5643C78.8564 31.5899 78.8564 41.7438 75.0957 50.7694L71.2175 60.0771L64.4482 57.2566L68.3264 47.9489C71.335 40.7284 71.335 32.6053 68.3264 25.3848Z" fill="#68686E"/>
</svg>
