<svg width="20" height="19" viewBox="0 0 20 19" fill="none" xmlns="http://www.w3.org/2000/svg">
<path fill-rule="evenodd" clip-rule="evenodd" d="M8.09789 1.61803C8.69659 -0.224594 11.3034 -0.22458 11.9021 1.61804L13.1962 5.60082L17.3839 5.60081C19.3214 5.60081 20.1269 8.08005 18.5595 9.21885L15.1716 11.6803L16.4656 15.6631C17.0643 17.5058 14.9554 19.038 13.388 17.8992L10 15.4377L6.61204 17.8992C5.04461 19.038 2.93566 17.5057 3.53436 15.6631L4.82844 11.6803L1.44049 9.21885C-0.126945 8.08004 0.67862 5.60081 2.61606 5.60081H6.8038L8.09789 1.61803ZM10 2.23607L8.70592 6.21885C8.43817 7.04289 7.67026 7.60081 6.8038 7.60081H2.61606L6.00401 10.0623C6.70499 10.5716 6.99831 11.4743 6.73056 12.2984L5.43647 16.2812L8.82443 13.8197C9.5254 13.3104 10.4746 13.3104 11.1756 13.8197L14.5635 16.2812L13.2694 12.2984C13.0017 11.4743 13.295 10.5716 13.996 10.0623L17.3839 7.60081H13.1962C12.3297 7.60081 11.5618 7.0429 11.2941 6.21885L10 2.23607Z" fill="black"/>
</svg>
